<svg xmlns="http://www.w3.org/2000/svg" viewBox="0 0 512 512">
  <defs>
    <linearGradient id="grad" x1="0%" y1="0%" x2="100%" y2="100%">
      <stop offset="0%" style="stop-color:#0df259;stop-opacity:1" />
      <stop offset="100%" style="stop-color:#0bc448;stop-opacity:1" />
    </linearGradient>
  </defs>
  <rect width="512" height="512" rx="100" fill="white"/>
  <path d="M256 64C150 64 64 150 64 256s86 192 192 192 192-86 192-192S362 64 256 64zm0 352c-88.4 0-160-71.6-160-160s71.6-160 160-160 160 71.6 160 160-71.6 160-160 160z" fill="url(#grad)" opacity="0.1"/>
  <path d="M336.8 208.8c-10.4-8.8-24.8-14.4-44-14.4-28 0-44.8 15.2-44.8 39.2 0 16.8 12.8 28.8 38.4 34.4 32.8 7.2 56 18.4 56 50.4 0 32-26.4 53.6-67.2 53.6-24 0-44.8-6.4-58.4-16.8l10.4-28c11.2 8.8 30.4 15.2 48.8 15.2 26.4 0 40.8-13.6 40.8-32.8 0-21.6-19.2-28.8-43.2-34.4-32.8-7.2-51.2-21.6-51.2-50.4 0-28 24-50.4 64-50.4 20.8 0 38.4 5.6 51.2 13.6l-10.8 30.4z" fill="url(#grad)"/>
</svg>
